SRRun01_grf
version=1
nRows=27
nColumns=19
inDegrees=no
endheader
time	ground_force_r_vx	ground_force_r_vy	ground_force_r_vz	ground_force_r_px	ground_force_r_py	ground_force_r_pz	ground_force_r_mx	ground_force_r_my	ground_force_r_mz	ground_force_l_vx	ground_force_l_vy	ground_force_l_vz	ground_force_l_px	ground_force_l_py	ground_force_l_pz	ground_force_l_mx	ground_force_l_my	ground_force_l_mz
    139.99600000	      0.00000000	      0.00000000	      0.00000000	      0.00000000	      0.00000000	      0.00000000	      0.00000000	      0.00000000	      0.00000000	    110.82546889	    861.11408830	      6.84815202	      0.93114255	      0.00000000	     -0.37273266	     -0.00001511	    -15.90601812	     -0.00000724
    139.99700000	      0.00000000	      0.00000000	      0.00000000	      0.00000000	      0.00000000	      0.00000000	      0.00000000	      0.00000000	      0.00000000	    116.96557793	    846.30323934	     13.44862577	      0.93035610	      0.00000000	     -0.37219294	     -0.00000822	    -17.15291523	     -0.00000014
    139.99800000	      0.00000000	      0.00000000	      0.00000000	      0.00000000	      0.00000000	      0.00000000	      0.00000000	      0.00000000	      0.00000000	    123.15627105	    831.01332293	     19.79269432	      0.92928956	      0.00000000	     -0.37167362	     -0.00000174	    -17.96691795	      0.00000685
    139.99900000	      0.00000000	      0.00000000	      0.00000000	      0.00000000	      0.00000000	      0.00000000	      0.00000000	      0.00000000	      0.00000000	    129.25074089	    815.27999540	     25.63510604	      0.92787737	      0.00000000	     -0.37118728	      0.00000411	    -18.22694798	      0.00001341
    140.00000000	      0.00000000	      0.00000000	      0.00000000	      0.00000000	      0.00000000	      0.00000000	      0.00000000	      0.00000000	      0.00000000	    135.08288769	    799.12988290	     30.74343282	      0.92607571	      0.00000000	     -0.37074499	      0.00000917	    -17.84775895	      0.00001929
    140.00100000	      0.00000000	      0.00000000	      0.00000000	      0.00000000	      0.00000000	      0.00000000	      0.00000000	      0.00000000	      0.00000000	    140.47308111	    782.58875093	     34.91336258	      0.92386932	      0.00000000	     -0.37035538	      0.00001333	    -16.79116299	      0.00002433
    140.00200000	      0.00000000	      0.00000000	      0.00000000	      0.00000000	      0.00000000	      0.00000000	      0.00000000	      0.00000000	      0.00000000	    145.23780422	    765.68861762	     37.98298003	      0.92127493	      0.00000000	     -0.37002381	      0.00001652	    -15.07301137	      0.00002841
    140.00300000	      0.00000000	      0.00000000	      0.00000000	      0.00000000	      0.00000000	      0.00000000	      0.00000000	      0.00000000	      0.00000000	    149.20271462	    748.47269608	     39.84479777	      0.91834084	      0.00000000	     -0.36975172	      0.00001875	    -12.76500439	      0.00003150
    140.00400000	      0.00000000	      0.00000000	      0.00000000	      0.00000000	      0.00000000	      0.00000000	      0.00000000	      0.00000000	      0.00000000	    152.21795228	    730.99756821	     40.45458461	      0.91514282	      0.00000000	     -0.36953617	      0.00002005	     -9.99102454	      0.00003364
    140.00500000	      0.00000000	      0.00000000	      0.00000000	      0.00000000	      0.00000000	      0.00000000	      0.00000000	      0.00000000	      0.00000000	    154.17397241	    713.33248768	     39.83618833	      0.91177696	      0.00000000	     -0.36936967	      0.00002052	     -6.91824180	      0.00003490
    140.00600000	      0.00000000	      0.00000000	      0.00000000	      0.00000000	      0.00000000	      0.00000000	      0.00000000	      0.00000000	      0.00000000	    155.01588663	    695.55613904	     38.08157970	      0.90835035	      0.00000000	     -0.36924051	      0.00002029	     -3.74381222	      0.00003540
    140.00700000	      0.00000000	      0.00000000	      0.00000000	      0.00000000	      0.00000000	      0.00000000	      0.00000000	      0.00000000	      0.00000000	    154.75427899	    677.75153187	     35.34551974	      0.90497056	      0.00000000	     -0.36913370	      0.00001949	     -0.67859637	      0.00003527
    140.00800000	      0.00000000	      0.00000000	      0.00000000	      0.00000000	      0.00000000	      0.00000000	      0.00000000	      0.00000000	      0.00000000	    153.47072424	    659.99996288	     31.83476278	      0.90173540	      0.00000000	     -0.36903258	      0.00001829	      2.07029501	      0.00003462
    140.00900000	      0.00000000	      0.00000000	      0.00000000	      0.00000000	      0.00000000	      0.00000000	      0.00000000	      0.00000000	      0.00000000	    151.31676352	    642.37503289	     27.79252605	      0.89872406	      0.00000000	     -0.36892091	      0.00001683	      4.31636370	      0.00003359
    140.01000000	      0.00000000	      0.00000000	      0.00000000	      0.00000000	      0.00000000	      0.00000000	      0.00000000	      0.00000000	      0.00000000	    148.50578966	    624.93748206	     23.47977716	      0.89599067	      0.00000000	     -0.36878508	      0.00001526	      5.90857920	      0.00003229
    140.01100000	      0.00000000	      0.00000000	      0.00000000	      0.00000000	      0.00000000	      0.00000000	      0.00000000	      0.00000000	      0.00000000	    145.29804493	    607.73124781	     19.15532814	      0.89356077	      0.00000000	     -0.36861615	      0.00001369	      6.74317776	      0.00003079
    140.01200000	      0.00000000	      0.00000000	      0.00000000	      0.00000000	      0.00000000	      0.00000000	      0.00000000	      0.00000000	      0.00000000	    141.97972084	    590.78093565	     15.05666588	      0.89143061	      0.00000000	     -0.36841143	      0.00001222	      6.77160279	      0.00002919
    140.01300000	      0.00000000	      0.00000000	      0.00000000	      0.00000000	      0.00000000	      0.00000000	      0.00000000	      0.00000000	      0.00000000	    138.83793060	    574.09086508	     11.38309722	      0.88956897	      0.00000000	     -0.36817535	      0.00001094	      6.00401577	      0.00002755
    140.01400000	      0.00000000	      0.00000000	      0.00000000	      0.00000000	      0.00000000	      0.00000000	      0.00000000	      0.00000000	      0.00000000	    136.13396490	    557.64583911	      8.28242417	      0.88792074	      0.00000000	     -0.36791970	      0.00000988	      4.50815492	      0.00002590
    140.01500000	      0.00000000	      0.00000000	      0.00000000	      0.00000000	      0.00000000	      0.00000000	      0.00000000	      0.00000000	      0.00000000	    134.07760516	    541.41372933	      5.84212669	      0.88641186	      0.00000000	     -0.36766311	      0.00000906	      2.40377091	      0.00002429
    140.01600000	      0.00000000	      0.00000000	      0.00000000	      0.00000000	      0.00000000	      0.00000000	      0.00000000	      0.00000000	      0.00000000	    132.80530245	    525.34982856	      4.08583993	      0.88495534	      0.00000000	     -0.36742975	      0.00000848	     -0.14668331	      0.00002275
    140.01700000	      0.00000000	      0.00000000	      0.00000000	      0.00000000	      0.00000000	      0.00000000	      0.00000000	      0.00000000	      0.00000000	    132.36474811	    509.40261928	      2.97558419	      0.88345795	      0.00000000	     -0.36724733	      0.00000811	     -2.95012103	      0.00002132
    140.01800000	      0.00000000	      0.00000000	      0.00000000	      0.00000000	      0.00000000	      0.00000000	      0.00000000	      0.00000000	      0.00000000	    132.70779158	    493.52021945	      2.41962397	      0.88182741	      0.00000000	     -0.36714418	      0.00000790	     -5.79659251	      0.00002001
    140.01900000	      0.00000000	      0.00000000	      0.00000000	      0.00000000	      0.00000000	      0.00000000	      0.00000000	      0.00000000	      0.00000000	    133.69284785	    477.65656257	      2.28508489	      0.87997928	      0.00000000	     -0.36714581	      0.00000782	     -8.47383279	      0.00001884
    140.02000000	      0.00000000	      0.00000000	      0.00000000	      0.00000000	      0.00000000	      0.00000000	      0.00000000	      0.00000000	      0.00000000	    135.09695551	    461.77654687	      2.41382052	      0.87784341	      0.00000000	     -0.36727128	      0.00000779	    -10.78179845	      0.00001784
    140.02100000	      0.00000000	      0.00000000	      0.00000000	      0.00000000	      0.00000000	      0.00000000	      0.00000000	      0.00000000	      0.00000000	    136.63660157	    445.85982581	      2.63975592	      0.87536950	      0.00000000	     -0.36752984	      0.00000778	    -12.54641007	      0.00001699
    140.02200000	      0.00000000	      0.00000000	      0.00000000	      0.00000000	      0.00000000	      0.00000000	      0.00000000	      0.00000000	      0.00000000	    137.99545194	    429.90327074	      2.80603678	      0.87253165	      0.00000000	     -0.36791836	      0.00000773	    -13.63165877	      0.00001629
